<?xml version="1.0" encoding="utf-8"?>
<!-- Generator: Adobe Illustrator 25.0.1, SVG Export Plug-In . SVG Version: 6.00 Build 0)  -->
<svg version="1.1" id="Layer_1" xmlns="http://www.w3.org/2000/svg" xmlns:xlink="http://www.w3.org/1999/xlink" x="0px" y="0px"
	 viewBox="0 0 542 356" style="enable-background:new 0 0 542 356;" xml:space="preserve">
<style type="text/css">
	.st0{fill:#213441;}
	.st1{fill:#DFCBBF;}
</style>
<path class="st0" d="M180.97,30.88c-3.57,2.51-7.15,5.03-10.72,7.54c-8.48,1.37-17.03,2.47-25.44,4.2c-7.77,1.6-16.2,2.4-22.94,6.11
	C93.95,64.1,69.21,83.77,48.15,107.82c-21.29,24.32-37,51.54-39.51,84.48c-2.6,34.18,6.13,64.62,32.16,88.72
	c16.61,15.38,35.69,26.7,56.35,35.5c36.79,15.68,75.54,23.07,115.1,27.38c61.59,6.71,122.43,2.13,182.66-11.51
	c34.09-7.72,66.96-19.04,96.01-39.09c30.02-20.71,45.67-50.24,46.86-86.2c1.57-47.19-23.58-82.57-54.76-114.61
	c-7.51-3.97-15.03-7.94-22.54-11.91c-4.23-3.38-8.45-6.75-12.68-10.13c-2.56-2.92-5.12-5.85-7.68-8.77
	c-1.18-1.45-2.09-3.36-3.6-4.28c-6.67-4.06-13.37-8.13-20.33-11.65C379.12,26.99,339.8,16.09,298.4,12.7
	c-15.39-1.26-30.62-1.37-44.69,6.58c-1.22,0.69-2.84,0.91-4.28,0.93c-12.63,0.19-25.3-0.17-37.9,0.56
	c-7.89,0.46-15.78,2.11-23.45,4.09C185.37,25.56,183.32,28.8,180.97,30.88z"/>
<path class="st0" d="M483.03,92.5c31.19,32.04,56.33,67.42,54.76,114.61c-1.2,35.96-16.85,65.48-46.86,86.2
	c-29.06,20.05-61.93,31.37-96.01,39.09c-60.22,13.64-121.06,18.22-182.66,11.51c-39.56-4.31-78.31-11.7-115.1-27.38
	c-20.66-8.8-39.74-20.13-56.35-35.5c-26.03-24.1-34.76-54.54-32.16-88.72c2.51-32.94,18.21-60.16,39.51-84.48
	c21.06-24.05,45.8-43.72,73.73-59.09c6.74-3.71,15.17-4.51,22.94-6.11c8.41-1.73,16.95-2.82,25.44-4.2
	c-2.25,0.78-4.45,1.86-6.77,2.29c-12.16,2.27-24.34,4.37-36.52,6.53c0.01,0.33,0.03,0.66,0.04,0.99c6.82,2.42,13.65,4.84,20.86,7.4
	c-3.87,5.4-7.46,10.19-10.81,15.15c-7.37,10.88-15.22,21.57-18.71,34.51c-4.81,17.81-9.32,35.71-13.91,53.58
	c-0.29,1.12-0.21,2.34-0.3,3.52c2.87-1.56,5.1-3.37,6.58-5.65c3.69-5.71,7.62-11.38,10.41-17.54
	c11.98-26.43,28.26-49.68,49.52-69.45c2.09-1.95,3.71-3.17,6.86-1.84c30.64,12.97,61.37,25.73,92.02,38.66
	c3.75,1.58,7.25,3.76,11.44,5.96c-31.55,26.56-46.22,61.94-57.57,99.24c1.96-1.66,3.35-3.67,4.55-5.79
	c5.83-10.28,11.48-20.67,17.42-30.88c11.79-20.27,29.29-34.6,48.83-46.89c10.04-6.31,19.33-6.16,29.86-0.6
	c24.89,13.13,44.3,32.32,61.65,53.86c7.98,9.91,13.82,21.17,16.89,33.68c0.83,3.39,1.39,6.87,2.59,10.12
	c1.04,2.8,3.03,4.88,7.16,2.73c-4.47-14.85-7.05-30.33-15.36-43.92c-8.14-13.32-18.02-25.18-29.57-35.67
	c-1.71-1.56-3.07-3.5-4.76-5.09c-5.05-4.77-9.61-10.42-15.44-13.91c-6.88-4.12-14.95-6.21-22.37-9.49
	c-1.83-0.81-4.38-2.84-4.39-4.32c-0.02-3.22,3.02-2.38,5.35-2.5c6.41-0.36,13.06-0.07,19.14-1.76c21.13-5.9,42.07-12.47,63.04-18.91
	c4.85-1.49,8.45,0.09,12.37,2.91c26.11,18.83,48.28,41.31,65.2,68.84c0.72,1.18,2.87,1.47,4.36,2.18c0.08-1.47,0.65-3.13,0.18-4.4
	c-6.14-16.52-14.16-32.01-26.56-44.75c-8.98-9.22-18.41-18-27.84-27.18c14.47-0.88,28.81,0.17,43.07,2.86
	C480.11,93.11,481.6,92.63,483.03,92.5z M401.99,313.1c33.5-2.08,102.56-45.73,109.05-69.44
	C480.96,277.71,444.15,299.6,401.99,313.1z"/>
<path class="st1" d="M483.03,92.5c-1.43,0.14-2.92,0.61-4.27,0.36c-14.26-2.69-28.6-3.74-43.07-2.86
	c9.43,9.18,18.87,17.95,27.84,27.18c12.4,12.75,20.42,28.24,26.56,44.75c0.47,1.27-0.09,2.92-0.18,4.4c-1.49-0.71-3.64-1-4.36-2.18
	c-16.92-27.53-39.09-50.01-65.2-68.84c-3.91-2.82-7.52-4.4-12.37-2.91c-20.97,6.45-41.91,13.02-63.04,18.91
	c-6.08,1.7-12.73,1.41-19.14,1.76c-2.33,0.13-5.37-0.71-5.35,2.5c0.01,1.48,2.56,3.51,4.39,4.32c7.42,3.29,15.49,5.37,22.37,9.49
	c5.83,3.5,10.39,9.15,15.44,13.91c1.69,1.59,3.05,3.53,4.76,5.09c11.55,10.49,21.43,22.34,29.57,35.67
	c8.3,13.59,10.88,29.07,15.36,43.92c-4.12,2.15-6.11,0.07-7.16-2.73c-1.21-3.25-1.76-6.73-2.59-10.12
	c-3.07-12.51-8.9-23.76-16.89-33.68c-17.35-21.54-36.75-40.73-61.65-53.86c-10.53-5.55-19.82-5.71-29.86,0.6
	c-19.55,12.29-37.04,26.62-48.83,46.89c-5.94,10.22-11.6,20.6-17.42,30.88c-1.2,2.12-2.58,4.13-4.55,5.79
	c11.35-37.3,26.02-72.68,57.57-99.24c-4.19-2.2-7.69-4.38-11.44-5.96c-30.66-12.92-61.38-25.69-92.02-38.66
	c-3.15-1.33-4.77-0.11-6.86,1.84c-21.26,19.77-37.54,43.03-49.52,69.45c-2.79,6.16-6.72,11.82-10.41,17.54
	c-1.48,2.29-3.7,4.09-6.58,5.65c0.09-1.18,0.01-2.39,0.3-3.52c4.59-17.87,9.1-35.77,13.91-53.58c3.49-12.94,11.34-23.63,18.71-34.51
	c3.35-4.95,6.95-9.75,10.81-15.15c-7.21-2.56-14.03-4.98-20.86-7.4c-0.01-0.33-0.03-0.66-0.04-0.99
	c12.17-2.16,24.36-4.26,36.52-6.53c2.32-0.43,4.52-1.51,6.77-2.29c3.57-2.51,7.15-5.03,10.72-7.54c3.11-1.81,6.04-4.58,9.38-5.24
	c9.42-1.86,18.97-3.39,28.54-4.04c10.12-0.68,20.43,0.74,30.44-0.51c7.76-0.97,15.05-0.63,22.51,0.94
	c41.85,8.83,81.88,22.93,120.48,41.26c1.53,0.73,3.48,1.07,5.16,0.9c12.74-1.23,25.45-2.69,38.19-3.89
	c1.43-0.13,2.97,0.89,4.46,1.38c2.56,2.92,5.12,5.85,7.68,8.77c0.54,0.75,1.07,1.51,1.81,2.54c-8.8,1.45-17.8,0.19-25.54,5.33
	c2.28,0.84,4.5,0.76,6.71,0.86c9.9,0.44,19.8,0.93,29.71,1.4C468,84.56,475.51,88.53,483.03,92.5z M200.2,40.41
	c1.2,0.66,2.46,1.4,3.76,2.07c33.84,17.39,69.02,32.22,101.29,52.67c1.19,0.75,3.47,0.62,4.89,0.04c5.99-2.45,11.81-5.34,17.77-7.87
	c15.54-6.58,31.14-13.04,46.69-19.55c-0.18-0.16-0.48-0.6-0.9-0.79c-7.51-3.55-14.99-7.17-22.56-10.6
	c-41.34-18.72-84.37-29.01-130.09-27.27C211.69,29.46,205.25,32.74,200.2,40.41z M145.36,83.71c0.49,0.44,0.97,0.88,1.46,1.33
	c0.86-0.97,1.66-2.01,2.6-2.9c8.7-8.19,17.32-16.47,26.19-24.47c3.04-2.74,6.69-2.81,10.72-1.19
	c40.22,16.21,81.22,30.76,116.83,56.53c1.55,1.12,3.57,1.61,5.37,2.4c0.28-0.4,0.56-0.8,0.85-1.21c-1.59-2.03-2.99-4.24-4.8-6.05
	c-10.81-10.85-23.81-18.55-37.14-25.82c-28.25-15.42-59.19-25.89-85.13-46.37c-5.38,6.58-11.78,11.41-22.09,11.96
	c4.59,1.6,7.64,2.67,10.04,3.5C161.9,62.25,153.63,72.98,145.36,83.71z M411.99,79.46c-6.22-3.19-21.1,0.83-25.6,6.63
	C395.04,83.56,403.6,84.28,411.99,79.46z M349.12,96.21c7.57-2.86,16.59-1.92,22.87-8.47C363.3,87.48,355.68,90.27,349.12,96.21z
	 M333.96,103.71c-0.22-0.63-0.45-1.26-0.67-1.89c-3.86,1.41-7.72,2.83-11.57,4.24c0.17,0.46,0.34,0.91,0.5,1.37
	C326.13,106.19,330.05,104.95,333.96,103.71z"/>
<path class="st0" d="M440.13,61.68c-1.49-0.49-3.03-1.52-4.46-1.38c-12.74,1.2-25.45,2.66-38.19,3.89c-1.69,0.16-3.63-0.18-5.16-0.9
	c-38.6-18.33-78.63-32.43-120.48-41.26c-7.46-1.57-14.75-1.92-22.51-0.94c-10.01,1.25-20.32-0.17-30.44,0.51
	c-9.57,0.64-19.12,2.18-28.54,4.04c-3.34,0.66-6.26,3.43-9.38,5.24c2.35-2.08,4.4-5.32,7.1-6.02c7.67-1.97,15.57-3.63,23.45-4.09
	c12.6-0.73,25.26-0.37,37.9-0.56c1.44-0.02,3.06-0.24,4.28-0.93c14.07-7.96,29.3-7.84,44.69-6.58
	c41.4,3.39,80.73,14.29,117.81,33.05c6.96,3.52,13.65,7.59,20.33,11.65C438.04,58.32,438.94,60.23,440.13,61.68z"/>
<path class="st0" d="M460.48,80.58c-9.9-0.47-19.8-0.96-29.71-1.4c-2.21-0.1-4.43-0.01-6.71-0.86c7.74-5.14,16.75-3.88,25.54-5.33
	c-0.73-1.03-1.27-1.79-1.81-2.54C452.03,73.83,456.26,77.21,460.48,80.58z"/>
<path class="st1" d="M401.99,313.1c42.16-13.49,78.97-35.39,109.05-69.44C504.55,267.36,435.49,311.01,401.99,313.1z"/>
<path class="st0" d="M200.2,40.41c5.04-7.67,11.49-10.95,20.85-11.3c45.72-1.73,88.75,8.55,130.09,27.27
	c7.57,3.43,15.05,7.04,22.56,10.6c0.42,0.2,0.72,0.63,0.9,0.79c-15.55,6.5-31.15,12.97-46.69,19.55
	c-5.97,2.52-11.78,5.41-17.77,7.87c-1.42,0.58-3.7,0.71-4.89-0.04c-32.26-20.45-67.44-35.27-101.29-52.67
	C202.66,41.81,201.4,41.07,200.2,40.41z"/>
<path class="st0" d="M145.36,83.71c8.27-10.73,16.54-21.46,24.9-32.31c-2.4-0.84-5.46-1.9-10.04-3.5
	c10.3-0.54,16.71-5.37,22.09-11.96c25.94,20.47,56.88,30.94,85.13,46.37c13.33,7.28,26.33,14.98,37.14,25.82
	c1.81,1.81,3.21,4.03,4.8,6.05c-0.28,0.4-0.56,0.8-0.85,1.21c-1.8-0.78-3.81-1.27-5.37-2.4c-35.61-25.76-76.61-40.32-116.83-56.53
	c-4.03-1.63-7.68-1.55-10.72,1.19c-8.87,8-17.49,16.28-26.19,24.47c-0.94,0.89-1.73,1.93-2.6,2.9
	C146.34,84.6,145.85,84.15,145.36,83.71z"/>
<path class="st0" d="M411.99,79.46c-8.38,4.82-16.94,4.1-25.6,6.63C390.89,80.29,405.76,76.27,411.99,79.46z"/>
<path class="st0" d="M349.12,96.21c6.56-5.94,14.18-8.73,22.87-8.47C365.71,94.29,356.69,93.34,349.12,96.21z"/>
<path class="st0" d="M333.96,103.71c-3.91,1.24-7.83,2.48-11.74,3.72c-0.17-0.46-0.34-0.91-0.5-1.37c3.86-1.41,7.72-2.83,11.57-4.24
	C333.51,102.45,333.74,103.08,333.96,103.71z"/>
</svg>
